<svg xmlns="http://www.w3.org/2000/svg" viewBox="0 0 96 32" width="144" height="48" role="img" aria-label="Stuti logo">
  <defs>
    <linearGradient id="g" x1="0" x2="1" y1="0" y2="1">
      <stop offset="0%" stop-color="#E2725B"/>
      <stop offset="100%" stop-color="#D4AF37"/>
    </linearGradient>
  </defs>
  <g fill="none" stroke="url(#g)" stroke-width="2">
    <path d="M14 6c-6 0-10 3.2-10 7 0 6 8 6.2 12 8 2.4 1.1 2.8 2.3 2.8 3.4 0 1.8-1.6 3.6-5.8 3.6-3 0-5.6-1-7.5-2.3"/>
    <path d="M32 24V8m0 16c0 2 1.4 3 3.4 3 2 0 3.6-1 3.6-3V8"/>
    <path d="M46 24V14m0-6v2m0 0c.8-.9 2.1-2 4.2-2 2.8 0 4.8 2 4.8 5v11"/>
    <path d="M60 24V14m0-6v2m0 0c.8-.9 2.1-2 4.2-2 2.8 0 4.8 2 4.8 5v11"/>
    <path d="M77 17c0-5 3.4-9 8.2-9 4.8 0 8.8 4 8.8 9s-4 9-8.8 9c-2.6 0-4.9-1.3-6.4-3.2"/>
  </g>
</svg>

